Coordinates
version=1
nRows=60
nColumns=12
inDegrees=yes

Units are S.I. units (second, meters, Newtons, ...)
Angles are in degrees

endheader
time	SC_y	SC_z	SC_x	AC_y	AC_z	AC_x	GH_y	GH_z	GH_yy	EL_x	PS_y
       0.0              -32.51          8.939          61.81          38.34         -9.464           7.36         -111.0          8.977         -124.5          69.96          125.5
   0.01204              -32.52          8.939           61.8          38.34         -9.466          7.358         -111.0          8.975         -124.5          69.96          125.5
   0.02409              -32.52           8.94          61.79          38.34         -9.467          7.356         -111.0          8.974         -124.5          69.95          125.5
   0.03613              -32.52           8.94          61.79          38.34         -9.469          7.354         -111.0          8.972         -124.5          69.95          125.5
   0.04817              -32.53          8.941          61.78          38.34         -9.471          7.352         -111.1           8.97         -124.5          69.95          125.5
   0.06022              -32.53          8.942          61.77          38.34         -9.473          7.349         -111.1          8.969         -124.5          69.94          125.5
   0.07226              -32.54          8.943          61.76          38.34         -9.475          7.347         -111.1          8.967         -124.5          69.94          125.5
   0.08431              -32.54          8.944          61.75          38.34         -9.477          7.344         -111.1          8.965         -124.5          69.93          125.5
   0.09635              -32.55          8.944          61.73          38.34         -9.479          7.342         -111.1          8.962         -124.5          69.93          125.5
    0.1084              -32.56          8.945          61.72          38.34         -9.482          7.339         -111.1           8.96         -124.5          69.92          125.5
    0.1204              -32.56          8.946          61.71          38.35         -9.484          7.335         -111.1          8.957         -124.5          69.92          125.5
    0.1325              -32.57          8.948          61.69          38.35         -9.487          7.332         -111.2          8.955         -124.5          69.91          125.4
    0.1445              -32.58          8.949          61.68          38.35          -9.49          7.328         -111.2          8.952         -124.5           69.9          125.4
    0.1566              -32.59           8.95          61.66          38.35         -9.494          7.324         -111.2          8.948         -124.5          69.89          125.4
    0.1686              -32.59          8.951          61.64          38.35         -9.497           7.32         -111.2          8.945         -124.6          69.89          125.4
    0.1807               -32.6          8.953          61.62          38.36         -9.501          7.315         -111.3          8.941         -124.6          69.88          125.4
    0.1927              -32.61          8.955           61.6          38.36         -9.506           7.31         -111.3          8.937         -124.6          69.87          125.4
    0.2047              -32.63          8.956          61.57          38.36          -9.51          7.304         -111.3          8.933         -124.6          69.86          125.4
    0.2168              -32.64          8.958          61.55          38.36         -9.515          7.298         -111.4          8.928         -124.6          69.84          125.3
    0.2288              -32.65           8.96          61.52          38.37         -9.521          7.292         -111.4          8.922         -124.6          69.83          125.3
    0.2409              -32.67          8.963          61.49          38.37         -9.527          7.284         -111.4          8.917         -124.6          69.82          125.3
    0.2529              -32.68          8.965          61.45          38.37         -9.534          7.276         -111.5           8.91         -124.6           69.8          125.3
     0.265               -32.7          8.968          61.42          38.38         -9.542          7.267         -111.5          8.903         -124.6          69.79          125.2
     0.277              -32.72          8.971          61.37          38.38          -9.55          7.257         -111.6          8.895         -124.6          69.77          125.2
     0.289              -32.75          8.975          61.33          38.39         -9.559          7.246         -111.6          8.886         -124.6          69.75          125.2
    0.3011              -32.77          8.979          61.27          38.39         -9.569          7.234         -111.7          8.877         -124.6          69.72          125.1
    0.3131               -32.8          8.983          61.22           38.4         -9.581           7.22         -111.8          8.866         -124.6           69.7          125.1
    0.3252              -32.83          8.988          61.15           38.4         -9.594          7.205         -111.9          8.853         -124.6          69.67          125.0
    0.3372              -32.87          8.994          61.07          38.41         -9.609          7.187         -112.0          8.839         -124.6          69.63          125.0
    0.3493              -32.91            9.0          60.99          38.42         -9.625          7.167         -112.1          8.824         -124.6          69.59          124.9
    0.3613              -32.96          9.008          60.89          38.43         -9.644          7.145         -112.2          8.806         -124.7          69.55          124.8
    0.3734              -33.01          9.016          60.78          38.44         -9.666          7.119         -112.3          8.785         -124.7           69.5          124.8
    0.3854              -33.07          9.026          60.65          38.46         -9.691          7.089         -112.5          8.761         -124.7          69.44          124.7
    0.3974              -33.14          9.037           60.5          38.47         -9.721          7.054         -112.7          8.733         -124.7          69.38          124.6
    0.4095              -33.23           9.05          60.33          38.49         -9.755          7.013         -112.9          8.701         -124.7           69.3          124.4
    0.4215              -33.33          9.065          60.12          38.51         -9.795          6.965         -113.2          8.662         -124.8          69.21          124.3
    0.4336              -33.45          9.084          59.88          38.54         -9.843          6.908         -113.5          8.617         -124.8           69.1          124.1
    0.4456              -33.59          9.106          59.59          38.57         -9.901          6.839         -113.9          8.562         -124.8          68.97          123.9
    0.4577              -33.76          9.132          59.23          38.61          -9.97          6.756         -114.4          8.496         -124.9          68.81          123.6
    0.4697              -33.97          9.165           58.8          38.65         -10.06          6.655         -114.9          8.416         -124.9          68.62          123.3
    0.4817              -34.23          9.205          58.27          38.71         -10.16           6.53         -115.6          8.316         -125.0          68.38          122.9
    0.4938              -34.55          9.255           57.6          38.78         -10.29          6.374         -116.5          8.192         -125.1          68.08          122.4
    0.5058              -34.96          9.318          56.76          38.87         -10.46          6.178         -117.6          8.036         -125.2           67.7          121.7
    0.5179              -35.48          9.398          55.69          38.98         -10.67          5.928         -118.9          7.837         -125.4          67.23          120.9
    0.5299              -36.14          9.501          54.33          39.12         -10.93          5.609         -120.7          7.583         -125.5          66.62          119.9
     0.542              -36.99          9.633          52.57          39.31         -11.28          5.199         -123.0          7.256         -125.8          65.83          118.6
     0.554              -38.07          9.801          50.34          39.54         -11.72          4.675         -125.9          6.839         -126.1          64.83          116.9
    0.5661              -39.43          10.01          47.52          39.84         -12.27          4.017         -129.5          6.315         -126.5          63.58          114.8
    0.5781               -41.1          10.27          44.09           40.2         -12.94          3.214         -134.0          5.676         -126.9          62.04          112.2
    0.5901              -43.02          10.57          40.11          40.62         -13.72          2.284         -139.1          4.935         -127.5          60.27          109.2
    0.6022              -45.11          10.89          35.81          41.07         -14.57          1.277         -144.7          4.133         -128.0          58.34          106.0
    0.6142              -47.19          11.22           31.5          41.52         -15.41         0.2697         -150.3          3.331         -128.6          56.42          102.8
    0.6263              -49.12          11.51          27.53          41.94          -16.2        -0.6605         -155.4           2.59         -129.2          54.64           99.8
    0.6383              -50.78          11.77           24.1           42.3         -16.87         -1.463         -159.9          1.951         -129.6          53.11          97.22
    0.6504              -52.14          11.98          21.28           42.6         -17.42         -2.121         -163.5          1.427         -130.0          51.85          95.11
    0.6624              -53.23          12.15          19.04          42.84         -17.86         -2.645         -166.4           1.01         -130.3          50.85          93.43
    0.6744              -54.08          12.28          17.29          43.02         -18.21         -3.055         -168.7         0.6834         -130.5          50.07          92.12
    0.6865              -54.74          12.39          15.93          43.16         -18.47         -3.375         -170.5          0.429         -130.7          49.46          91.09
    0.6985              -55.25          12.47          14.86          43.28         -18.68         -3.624         -171.8         0.2302         -130.9          48.98          90.29
    0.7106              -55.66          12.53          14.02          43.36         -18.85         -3.821         -172.9        0.07389         -131.0          48.61          89.66
